<svg xmlns="http://www.w3.org/2000/svg" xmlns:xlink="http://www.w3.org/1999/xlink" viewbox="0 0 32 32" width="32" height="32" stroke="currentColor" fill="currentColor"><path d="M27.1 5.8a26.5 26.5 0 0 0-6.5-2 0.1 0.1 0 0 0-0.1 0c-0.3 0.5-0.6 1.2-0.8 1.7a24.4 24.4 0 0 0-7.4 0 16.5 16.5 0 0 0-0.8-1.7 0.1 0.1 0 0 0-0.1 0c-2.3 0.4-4.4 1.1-6.5 2a0.1 0.1 0 0 0 0 0.1C0.7 12-0.4 18.1 0.1 24.1c0 0 0 0.1 0.1 0a26.6 26.6 0 0 0 8 4.1 0.1 0.1 0 0 0 0.1-0.1c0.6-0.8 1.2-1.7 1.6-2.6a0.1 0.1 0 0 0 0-0.1 0.1 0.1 0 0 0 0-0.1 17.8 17.8 0 0 1-2.5-1.1 0.1 0.1 0 0 1-0.1-0.2 0.1 0.1 0 0 1 0 0c0.2-0.1 0.3-0.3 0.5-0.4a0.1 0.1 0 0 1 0.1 0c5.2 2.4 10.9 2.4 16.1 0a0.1 0.1 0 0 1 0.1 0c0.2 0.1 0.3 0.3 0.5 0.4a0.1 0.1 0 0 1 0 0.2 16.5 16.5 0 0 1-2.5 1.1 0.1 0.1 0 0 0 0 0.1 0.1 0.1 0 0 0 0 0.1c0.5 0.9 1 1.8 1.6 2.6a0.1 0.1 0 0 0 0.1 0.1 26.5 26.5 0 0 0 8-4.1 0.1 0.1 0 0 0 0.1 0c0.7-6.9-1.1-12.9-4.8-18.2a0.1 0.1 0 0 0 0-0.1Zm-16.4 14.6c-1.6 0-2.9-1.4-2.9-3.2 0-1.8 1.3-3.2 2.9-3.2 1.6 0 2.9 1.5 2.9 3.2 0 1.8-1.3 3.2-2.9 3.2Zm10.6 0c-1.6 0-2.9-1.4-2.9-3.2 0-1.8 1.3-3.2 2.9-3.2 1.6 0 2.9 1.5 2.9 3.2 0 1.8-1.3 3.2-2.9 3.2Z"  /></svg>