<svg xmlns="http://www.w3.org/2000/svg" xmlns:xlink="http://www.w3.org/1999/xlink" viewbox="0 0 30 30" width="30" height="30" stroke="currentColor" fill="currentColor"><path d="M11.6 20.5c0 1.3-0.7 3.4-2.3 3.5s-2.3-2.1-2.3-3.5 0.7-3.4 2.3-3.4 2.3 2.1 2.3 3.4zM30 17.4c0 2-0.2 4.1-1.1 5.9-2.4 4.8-8.9 4.7-13.5 4.7-4.7 0-11.6 0.2-14.1-4.7-0.9-1.8-1.3-3.9-1.3-5.9 0-2.6 0.9-5.1 2.6-7.1-0.3-1-0.5-2-0.5-3.1 0-1.3 0.3-2 0.9-3.2 2.8 0 4.6 0.6 6.8 2.3 1.8-0.4 3.7-0.6 5.6-0.7 1.7 0 3.4 0.2 5 0.6 2.1-1.7 3.9-2.2 6.7-2.2 0.6 1.2 0.9 1.9 0.9 3.2 0 1-0.2 2-0.4 3.1 1.7 2 2.4 4.5 2.4 7.1z m-4 3.1c0-2.7-1.7-5.2-4.6-5.1-1.2 0-2.3 0.2-3.5 0.4-0.9 0.1-1.9 0.2-2.8 0.2-0.9 0-1.9-0.1-2.9-0.2-1.2-0.2-2.3-0.4-3.5-0.4-2.9 0-4.6 2.4-4.5 5.1 0 5.5 5 6.3 9.4 6.4h3c4.4 0 9.4-0.8 9.4-6.4z m-5.2-3.4c-1.6 0-2.3 2.1-2.3 3.4s0.7 3.4 2.3 3.5 2.3-2.1 2.3-3.5-0.7-3.4-2.3-3.4z"  /></svg>