<svg xmlns="http://www.w3.org/2000/svg" xmlns:xlink="http://www.w3.org/1999/xlink" viewbox="0 0 32 32" width="32" height="32" stroke="currentColor" fill="currentColor"><path d="M25.8 7.4a6.8 6.8 0 0 1-0.6-0.3 8.3 8.3 0 0 1-1.5-1.3c-1.1-1.3-1.6-2.6-1.8-3.5h0C21.8 1.5 21.9 1 21.9 1h-5.2v19.9c0 0.3 0 0.5 0 0.8 0 0 0 0.1 0 0.1 0 0 0 0 0 0.1v0a4.4 4.4 0 0 1-2.2 3.4 4.3 4.3 0 0 1-2.1 0.6c-2.4 0-4.3-2-4.4-4.4s1.9-4.4 4.4-4.3a4.3 4.3 0 0 1 1.3 0.2l0-5.3a9.6 9.6 0 0 0-7.4 2.2 10.1 10.1 0 0 0-2.2 2.7c-0.2 0.4-1 1.9-1.1 4.3-0.1 1.4 0.4 2.8 0.6 3.4v0.1c0.1 0.3 0.6 1.5 1.4 2.5A10.5 10.5 0 0 0 7.2 29.4v0l0 0c2.5 1.7 5.3 1.6 5.3 1.6 0.5 0 2.1 0 3.9-0.9 2-1 3.2-2.4 3.1-2.3a9.9 9.9 0 0 0 1.8-2.9c0.5-1.2 0.6-2.7 0.6-3.3V11c0.1 0 0.9 0.6 0.9 0.6s1.2 0.8 3.1 1.3c1.3 0.4 3.1 0.4 3.1 0.4v-5.1c-0.6 0.1-1.9-0.1-3.2-0.8Z"  /></svg>